<svg viewBox="0 0 180 40" xmlns="http://www.w3.org/2000/svg" role="img" aria-label="LuxON">
  <title>LuxON</title>
  <defs>
    <!-- Brand greens -->
    <linearGradient id="lux-g" x1="0%" y1="0%" x2="100%" y2="0%">
      <stop offset="0%" stop-color="#22C55E"/>
      <stop offset="60%" stop-color="#16A34A"/>
    </linearGradient>
  </defs>

  <!-- LUX wordmark (outlined paths for crisp rendering) -->
  <g fill="#E6EDF5">
    <!-- L -->
    <path d="M8 6h6v22h16v6H8z"/>
    <!-- U -->
    <path d="M36 6h6v16c0 4.5 3 6 7 6s7-1.5 7-6V6h6v16c0 8-6.3 12-13 12s-13-4-13-12z"/>
    <!-- X -->
    <path d="M71 6h7l7 9 7-9h7l-10 13 10 15h-7l-7-10-7 10h-7l10-15z"/>
  </g>

  <!-- ON with power O -->
  <!-- Power ring (O) -->
  <g transform="translate(118,4)">
    <circle cx="12" cy="16" r="12" fill="none" stroke="url(#lux-g)" stroke-width="4"/>
    <!-- Power stem -->
    <rect x="10.5" y="2" width="3" height="9" rx="1.5" fill="url(#lux-g)"/>
  </g>
  <!-- N -->
  <path d="M150 6h6l12 18V6h6v28h-6l-12-18v18h-6z" fill="url(#lux-g)"/>
</svg>
