<?xml version="1.0" encoding="utf-8"?>
<!-- Generator: Adobe Illustrator 26.3.1, SVG Export Plug-In . SVG Version: 6.00 Build 0)  -->
<svg version="1.1" id="Layer_1" xmlns="http://www.w3.org/2000/svg" xmlns:xlink="http://www.w3.org/1999/xlink" x="0px" y="0px"
	 viewBox="46.8 59.2 393.5 393.5" style="enable-background:new 46.8 59.2 393.5 393.5;" xml:space="preserve">
<style type="text/css">
	.st0{fill:#FFFFFF;}
	.st1{clip-path:url(#SVGID_00000174576004307846052290000013584397619373599403_);}
	.st2{fill-rule:evenodd;clip-rule:evenodd;fill:url(#SVGID_00000030484966271874745200000018278948664116349113_);}
	.st3{fill-rule:evenodd;clip-rule:evenodd;fill:#FFFFFF;}
</style>
<g style="display:none">
	<g>
		<path class="st0" d="M532.4,311.7c-3,3-6.7,4.5-11.1,4.5s-7.9-1.6-11.1-4.5c-3-3.1-4.5-6.9-4.5-11.2c0-4.4,1.6-8.1,4.5-11.1
			c3.1-3.1,6.7-4.5,11.1-4.5s7.9,1.6,11.1,4.5s4.5,6.7,4.5,11.1C537.1,304.8,535.5,308.6,532.4,311.7z M513.6,308.7
			c2.2,2.2,4.8,3.4,7.9,3.4c3.1,0,5.6-1.1,7.8-3.3c2.2-2.3,3.3-5,3.3-8.3c0-3.3-1.1-6.1-3.3-8.3c-2.2-2.2-4.8-3.4-7.8-3.4
			c-3,0-5.6,1.1-7.9,3.4c-2.2,2.2-3.3,5-3.3,8.3C510.4,303.7,511.5,306.4,513.6,308.7z"/>
		<path class="st0" d="M545,315.6v-30.1h26.3v30.1h-4.5v-26h-17.4v26H545z"/>
		<path class="st0" d="M604.3,307l2.8,2.8c-0.8,1.1-1.9,2.2-3.3,3.1c-3,2-6.1,3.1-9.5,3.1c-4.2,0-7.8-1.6-10.7-4.5
			c-3-3.1-4.5-6.7-4.5-11.1c0-4.4,1.6-8.1,4.5-11.1c3-3.1,6.4-4.5,10.4-4.5c4.2,0,7.6,1.4,10.4,4.2c2.8,2.8,4.2,6.4,4.2,10.7
			c0,0.2,0,0.8-0.2,1.6l-0.2,0.6h-24.8c0.2,2.6,1.2,5.1,3.4,7.2c2.2,2,4.5,3,7.5,3c2.6,0,5-0.8,7.3-2.5
			C602.9,308.7,603.7,307.8,604.3,307z M583.6,298.3h20.6c-0.3-2.6-1.4-5-3.4-6.7c-1.9-1.9-4-2.6-6.9-2.6c-2.6,0-5,0.9-7,2.8
			C585.2,293.5,584.1,295.6,583.6,298.3z"/>
		<path class="st0" d="M616.6,328.6v-43.3h4.5v4.4c0.8-0.9,1.6-1.9,2.6-2.5c2.3-1.7,5-2.5,7.9-2.5c4.2,0,7.8,1.6,10.6,4.5
			c2.8,3,4.4,6.7,4.4,11.2s-1.4,8.3-4.4,11.2c-2.8,3-6.4,4.5-10.6,4.5c-3,0-5.6-0.8-7.9-2.5c-1.1-0.8-1.9-1.6-2.6-2.5v17.6h-4.5
			V328.6z M631.6,312.1c3,0,5.5-1.1,7.5-3.3c2-2.2,3.1-5,3.1-8.4s-1.1-6.2-3.1-8.4c-2-2.2-4.5-3.3-7.5-3.3c-2.8,0-5.1,1.1-7.3,3.4
			c-2.2,2.3-3.1,5-3.1,8.3c0,3.3,1.1,5.9,3.1,8.3C626.5,310.9,628.8,312.1,631.6,312.1z"/>
		<path class="st0" d="M672.9,315.6v-4c-0.6,0.9-1.4,1.7-2.3,2.3c-2.2,1.6-4.7,2.3-7.5,2.3c-3.1,0-5.6-0.9-7.8-2.6
			c-2-1.9-3.1-3.9-3.1-6.1c0-5.1,3-8.1,8.9-9l11.7-1.9c0-2.2-0.8-4-2.2-5.5s-3.3-2.2-5.5-2.2s-4.4,0.8-6.2,2.2
			c-0.9,0.8-1.7,1.6-2.3,2.2l-2.8-2.8c0.8-1.1,1.9-2,3-2.8c2.6-1.9,5.5-2.8,8.4-2.8c3.4,0,6.4,1.1,8.6,3.3c2.3,2.2,3.4,5,3.4,8.3
			v19.2H672.9z M672.9,302v-1.9l-10.4,1.9c-3.7,0.6-5.8,2.5-5.8,5.3c0,1.4,0.6,2.5,1.7,3.4c1.1,0.9,2.6,1.2,4.7,1.2
			c3,0,5.3-0.9,7.2-2.8C671.9,307.5,672.9,305,672.9,302z"/>
		<path class="st0" d="M693.7,315.6v-26H683v-4h26v4h-10.7v26H693.7z"/>
		<path class="st0" d="M739.1,311.7c-3,3-6.7,4.5-11.1,4.5c-4.4,0-7.9-1.6-11.1-4.5c-3-3.1-4.5-6.9-4.5-11.2c0-4.4,1.6-8.1,4.5-11.1
			c3.1-3.1,6.7-4.5,11.1-4.5s7.9,1.6,11.1,4.5c3.1,3,4.5,6.7,4.5,11.1C743.6,304.8,742.2,308.6,739.1,311.7z M720.2,308.7
			c2.2,2.2,4.8,3.4,7.9,3.4c3.1,0,5.6-1.1,7.8-3.3c2.2-2.3,3.3-5,3.3-8.3c0-3.3-1.1-6.1-3.3-8.3c-2.2-2.2-4.8-3.4-7.8-3.4
			c-3.1,0-5.6,1.1-7.9,3.4c-2.2,2.2-3.3,5-3.3,8.3C716.9,303.7,718,306.4,720.2,308.7z"/>
		<path class="st0" d="M751.5,328.6v-43.3h4.5v4.4c0.8-0.9,1.6-1.9,2.6-2.5c2.3-1.7,5-2.5,7.9-2.5c4.2,0,7.8,1.6,10.6,4.5
			s4.4,6.7,4.4,11.2s-1.4,8.3-4.4,11.2c-2.8,3-6.4,4.5-10.6,4.5c-3,0-5.6-0.8-7.9-2.5c-1.1-0.8-1.9-1.6-2.6-2.5v17.6h-4.5V328.6z
			 M766.5,312.1c3,0,5.5-1.1,7.5-3.3c2-2.2,3.1-5,3.1-8.4s-1.1-6.2-3.1-8.4c-2-2.2-4.5-3.3-7.5-3.3c-2.8,0-5.1,1.1-7.3,3.4
			c-2.2,2.3-3.1,5-3.1,8.3c0,3.3,1.1,5.9,3.1,8.3C761.3,310.9,763.7,312.1,766.5,312.1z"/>
		<path class="st0" d="M508.1,378.2v-30.1h14c2.8,0,5.1,0.8,6.7,2.2c1.7,1.4,2.5,3.3,2.5,5.6c0,1.9-0.6,3.4-1.9,4.8
			c-0.6,0.5-1.2,1.1-1.9,1.6c0.9,0.3,1.9,0.8,2.5,1.4c1.7,1.4,2.5,3.4,2.5,5.8c0,2.6-0.9,4.8-2.6,6.4s-4,2.3-7.2,2.3L508.1,378.2
			L508.1,378.2z M512.6,360.4h9.5c3.1,0,4.8-1.4,4.8-4s-1.6-4-4.8-4h-9.5V360.4z M512.6,374.1h10.1c3.6,0,5.5-1.7,5.5-5
			c0-3.3-1.9-5-5.5-5h-10.1V374.1z"/>
		<path class="st0" d="M537.4,373.5l2.8-2.8c0.6,0.8,1.4,1.6,2.3,2c1.9,1.4,4,2,6.2,2c2.3,0,4.2-0.5,5.5-1.4
			c1.2-0.9,1.9-2.2,1.9-3.6c0-1.6-0.6-2.6-1.9-3.6c-1.2-0.9-3.1-1.4-5.5-1.4h-3.4v-4h3.4c1.9,0,3.3-0.5,4.4-1.4
			c1.1-0.9,1.7-2,1.7-3.3c0-1.2-0.5-2.3-1.6-3.1c-1.1-0.8-2.5-1.2-4.5-1.2c-2,0-3.9,0.6-5.6,1.7c-0.8,0.5-1.6,1.1-2,1.7L538,352
			c0.6-0.6,1.6-1.4,2.8-2.2c2.5-1.4,5.1-2.2,7.9-2.2c3.1,0,5.6,0.9,7.5,2.6c2,1.7,3,3.6,3,5.9c0,2.3-0.8,4-2.3,5.3
			c-0.8,0.6-1.6,0.9-2.3,1.2c1.1,0.3,2,0.6,3,1.2c2,1.4,3.1,3.3,3.1,5.9c0,2.5-1.1,4.7-3.1,6.4c-2,1.7-5,2.6-8.6,2.6
			c-3.1,0-5.9-0.9-8.6-2.6C539.1,375.5,538.2,374.6,537.4,373.5z"/>
		<path class="st0" d="M587.2,378.2v-4c-0.6,0.9-1.4,1.7-2.3,2.3c-2.2,1.6-4.7,2.3-7.5,2.3c-3.1,0-5.6-0.9-7.8-2.6
			c-2-1.9-3.1-3.9-3.1-6.1c0-5.1,3-8.1,8.9-9l11.7-1.9c0-2.2-0.8-4-2.2-5.5s-3.3-2.2-5.5-2.2c-2.2,0-4.4,0.8-6.2,2.2
			c-0.9,0.8-1.7,1.6-2.3,2.2l-2.8-2.8c0.8-1.1,1.9-2,3-2.8c2.6-1.9,5.5-2.8,8.4-2.8c3.4,0,6.4,1.1,8.6,3.3c2.2,2.2,3.4,5,3.4,8.3
			v19.2H587.2z M587.2,364.8v-1.9l-10.4,1.9c-3.7,0.6-5.8,2.5-5.8,5.3c0,1.4,0.6,2.5,1.7,3.4c1.1,0.9,2.6,1.2,4.7,1.2
			c3,0,5.3-0.9,7.2-2.8C586.3,370.2,587.2,367.7,587.2,364.8z"/>
		<path class="st0" d="M601.7,378.2v-30.1h4.5v22.6l18.4-22.6h3.7v30.1h-4.5v-22.6l-18.4,22.6H601.7z"/>
		<path class="st0" d="M638.6,378.2v-30.1h3.4l12,15.1l12-15.1h3.4v30.1h-4.2v-22.3l-11.1,13.9l-11.1-13.9v22.3H638.6z"/>
		<path class="st0" d="M704.2,374.4c-3,3-6.7,4.5-11.1,4.5c-4.4,0-7.9-1.6-11.1-4.5c-3-3.1-4.5-6.9-4.5-11.2c0-4.4,1.6-8.1,4.5-11.1
			c3.1-3.1,6.7-4.5,11.1-4.5s7.9,1.6,11.1,4.5s4.5,6.7,4.5,11.1C708.7,367.6,707.1,371.3,704.2,374.4z M685.3,371.5
			c2.2,2.3,4.8,3.4,7.9,3.4s5.6-1.1,7.8-3.3c2.2-2.3,3.3-5,3.3-8.3c0-3.3-1.1-6.1-3.3-8.3c-2.2-2.2-4.8-3.4-7.8-3.4
			c-3.1,0-5.6,1.1-7.9,3.4c-2.2,2.2-3.3,5-3.3,8.3C682.1,366.3,683.1,369.1,685.3,371.5z"/>
		<path class="st0" d="M711.6,385.8v-11.7h2.2c1.1-1.1,1.9-2.5,2.6-4.2c1.9-3.9,2.8-8.3,2.8-13.1v-8.7h20.9v26h4.8v11.7h-4.5v-7.5
			H716v7.5H711.6z M718.5,374.1h17.1v-22h-12v4.7c0,4.7-0.8,9-2.5,12.9C720.4,371.6,719.4,373,718.5,374.1z"/>
		<path class="st0" d="M774.7,369.8l2.8,2.8c-0.8,1.1-1.9,2.2-3.3,3.1c-3,2-6.1,3.1-9.5,3.1c-4.2,0-7.8-1.6-10.7-4.5
			c-3-3.1-4.5-6.7-4.5-11.1c0-4.4,1.6-8.1,4.5-11.1c3-3.1,6.4-4.5,10.4-4.5c4.2,0,7.6,1.4,10.4,4.2c2.8,2.8,4.2,6.4,4.2,10.7
			c0,0.2,0,0.8-0.2,1.6l-0.2,0.6H754c0.2,2.6,1.2,5.1,3.4,7.2c2.2,2,4.5,3,7.5,3c2.6,0,5-0.8,7.3-2.5
			C773.3,371.5,774.1,370.5,774.7,369.8z M754.2,361h20.6c-0.3-2.6-1.4-5-3.4-6.7c-1.9-1.9-4-2.6-6.9-2.6c-2.6,0-5,0.9-7,2.8
			C755.4,356.4,754.5,358.4,754.2,361z"/>
		<path class="st0" d="M791.8,334.4h3.4c0,3.6,1.7,5.3,5.1,5.3c3.4,0,5.1-1.7,5.1-5.3h3.4c0,2.5-0.8,4.5-2.3,6.1
			c-1.6,1.6-3.6,2.3-6.2,2.3c-2.5,0-4.7-0.8-6.2-2.3C792.6,338.9,791.8,336.9,791.8,334.4z M787,378.2v-30.1h4.5v22.6l18.4-22.6h3.7
			v30.1h-4.5v-22.6l-18.4,22.6H787z"/>
		<path class="st0" d="M846.3,369.8l3.1,2.8c-0.8,1.1-2,2-3.4,3.1c-3,2-6.1,3.1-9.3,3.1c-4.2,0-7.8-1.6-10.7-4.5
			c-3-3.1-4.5-6.7-4.5-11.1c0-4.4,1.6-8.1,4.5-11.1c3-3.1,6.5-4.5,10.7-4.5c3.3,0,6.4,0.9,9.2,3c1.1,0.8,2.2,1.9,3.3,3l-3.1,3.1
			c-0.6-0.9-1.4-1.7-2.3-2.5c-2-1.7-4.4-2.5-6.9-2.5c-3,0-5.5,1.1-7.6,3.4c-2.2,2.2-3.1,5-3.1,8.3c0,3.3,1.1,6.1,3.1,8.3
			c2.2,2.2,4.7,3.3,7.6,3.3c2.3,0,4.8-0.8,7-2.5C844.9,371.5,845.7,370.7,846.3,369.8z"/>
		<path class="st0" d="M863.5,378.2v-26h-10.7v-4h26v4H868v26H863.5z"/>
		<path class="st0" d="M885.1,378.2v-30.1h14c2.8,0,5.1,0.8,6.7,2.2c1.7,1.4,2.5,3.3,2.5,5.6c0,1.9-0.6,3.4-1.9,4.8
			c-0.6,0.5-1.2,1.1-1.9,1.6c0.9,0.3,1.9,0.8,2.5,1.4c1.7,1.4,2.5,3.4,2.5,5.8c0,2.6-0.9,4.8-2.6,6.4c-1.7,1.6-4,2.3-7.2,2.3
			L885.1,378.2L885.1,378.2z M889.6,360.4h9.5c3.1,0,4.8-1.4,4.8-4s-1.6-4-4.8-4h-9.5V360.4z M889.6,374.1h10.1c3.6,0,5.5-1.7,5.5-5
			c0-3.3-1.9-5-5.5-5h-10.1V374.1z"/>
		<path class="st0" d="M917.8,378.2v-30.1h4.5v22.6l18.4-22.6h3.7v30.1h-4.5v-22.6l-18.4,22.6H917.8z"/>
		<path class="st0" d="M952.1,378.2l7-10.9c-1.1-0.3-2.2-0.9-3.1-1.7c-2.2-1.7-3.1-4.2-3.1-7.5c0-3,1.1-5.3,3.1-7.2
			c2-1.9,4.8-3,8.1-3h13.1V378h-4.5v-10h-8.9l-6.4,10h-5.3V378.2z M963.8,364.2h8.6v-12h-8.6c-2,0-3.6,0.5-4.8,1.6
			c-1.2,1.1-1.7,2.5-1.7,4.4c0,1.9,0.6,3.3,1.7,4.4C960.2,363.5,961.7,364.2,963.8,364.2z"/>
	</g>
	<g>
		<path class="st0" d="M505.9,243.6V128.5h85.8v23h-61v22.3h47.8v22.3h-47.8v24.6h62.8v23h-87.5V243.6z"/>
		<path class="st0" d="M615.7,243.6V128.5h24.8v92.2H694v23h-78.3V243.6z"/>
		<path class="st0" d="M825.2,249.4v21.3l-2.3,0.5c-2,0.2-3.9,0.3-5.9,0.3c-14.3,0-26.6-4.4-36.9-13.2c-4.4-3.7-8.1-8.1-10.9-13.2
			l-2.3,0.5c-2,0.2-3.9,0.3-5.9,0.3c-17.8,0-32.5-5.9-44.7-17.6c-12-11.7-17.9-25.9-17.9-42.5c0-16.5,5.9-30.7,17.9-42.5
			c12.1-11.7,26.9-17.6,44.7-17.6c17.8,0,32.5,5.9,44.5,17.6c12.1,11.7,18.2,25.9,18.2,42.5c0,15.4-5.5,28.8-16.2,40.2
			c-5,5-10.3,8.9-16,11.7c1.9,2.3,4,4.4,6.7,6.2c5.8,4,12.3,6.1,19.6,6.1c1.7,0,3.6-0.2,5.3-0.3L825.2,249.4z M734.4,160
			c-7.2,7.2-10.7,15.9-10.7,26.2c0,10.3,3.6,19.2,10.7,26.3c7.3,7.2,16,10.7,26.3,10.7c10.3,0,19.2-3.6,26.2-10.7
			c7.3-7.2,10.9-16,10.9-26.3s-3.6-19-10.9-26.2c-7.2-7.2-15.9-10.9-26.2-10.9C750.4,149.1,741.7,152.7,734.4,160z"/>
		<path class="st0" d="M845.7,243.6V128.5h51.1c12.3,0,22.1,3.6,29.4,10.7c7.3,7,11.1,16.4,11.1,28c0,11.4-3.3,20.2-10,26.8
			c-2.8,3-6.1,5.3-10,6.9l24,42.8h-27.3l-20.6-37.8h-23v37.8h-24.8V243.6z M870.5,182.9H896c4.7,0,8.4-1.4,11.2-4.2
			c3-3,4.5-6.7,4.5-11.4c0-4.7-1.6-8.4-4.5-11.2c-2.8-3-6.5-4.5-11.2-4.5h-25.5V182.9z"/>
	</g>
</g>
<g>
	<defs>
		<rect id="SVGID_1_" x="46.8" y="59.2" width="393.5" height="393.5"/>
	</defs>
	<clipPath id="SVGID_00000009569494404259032560000001892157339452659078_">
		<use xlink:href="#SVGID_1_"  style="overflow:visible;"/>
	</clipPath>
	<g style="clip-path:url(#SVGID_00000009569494404259032560000001892157339452659078_);">
		
			<linearGradient id="SVGID_00000057868047604874128860000000234086577074241413_" gradientUnits="userSpaceOnUse" x1="157.0011" y1="349.9773" x2="336.7006" y2="159.1248" gradientTransform="matrix(1 0 0 -1 0 514)">
			<stop  offset="0" style="stop-color:#8A2EFF"/>
			<stop  offset="1" style="stop-color:#30BCC9"/>
		</linearGradient>
		<path style="fill-rule:evenodd;clip-rule:evenodd;fill:url(#SVGID_00000057868047604874128860000000234086577074241413_);" d="
			M46.9,124.8c0-36.2,29.4-65.6,65.6-65.6h262.3c36.2,0,65.6,29.4,65.6,65.6v9.9c-11.2-1.4-22.6-2.1-34.1-2.1
			c-151.4,0-274.2,120.1-274.2,268.3c0,17.7,1.8,35,5.1,51.8h-24.8c-36.2,0-65.6-29.4-65.6-65.6L46.9,124.8L46.9,124.8z
			 M440.4,387.2V167.9c-11.1-1.6-22.5-2.4-34.1-2.4c-131.8,0-238.7,106.9-238.7,238.7c0,16.6,1.7,32.9,4.9,48.5h202.3
			C411,452.8,440.4,423.4,440.4,387.2L440.4,387.2z"/>
		<path class="st0" d="M394.4,427.8h-34.8c-11.4,0-20.6-9.3-20.6-20.6v-34.8c0-11.4,9.3-20.6,20.6-20.6h34.8
			c11.4,0,20.6,9.3,20.6,20.6v34.8C415,418.6,405.7,427.8,394.4,427.8z M359.5,363c-5.2,0-9.4,4.2-9.4,9.4v34.8
			c0,5.2,4.2,9.4,9.4,9.4h34.8c5.2,0,9.4-4.2,9.4-9.4v-34.8c0-5.2-4.2-9.4-9.4-9.4H359.5z"/>
		<path class="st0" d="M386.6,374.1h-19.3c-3.4,0-6.1,2.7-6.1,6.1v19.3c0,3.4,2.7,6.1,6.1,6.1h19.3c3.4,0,6.1-2.7,6.1-6.1v-19.3
			C392.7,376.8,390,374.1,386.6,374.1L386.6,374.1z"/>
		<path class="st3" d="M276.1,402.1c-0.7-3.7-2.2-5-5.2-7.2c-2.3-1.7-5.5-3.4-9.5-3.7c-9.2-0.7-17.4,9-19.7,12.3
			c-6,8.7-3.4,24.7-5.7,26.4c-1.9,1.3-4.9,0.9-7.9-4.8c-3.8-7.4-2.3-18.2,0.6-23.2c2.8-5,16.9-14.7,15.9-18.3
			c-0.6-2.1-3.4-2.2-8.1-0.4c-4.7,1.8-8.8,5.2-11.7,9.5L220,400c-0.4,0.7-1.2,1-2,0.8c-1.1-0.3-1.9-1-2.5-2c-1.2-2-1.6-4.3-1.3-6.6
			l0.1-0.6c0.3-2.5,1.4-4.9,3.1-6.7c2.7-2.9,6.5-6.6,8.5-7.4c2.8-1.3,5.1-2.9,10.6-6c5.4-3.1,3.5-6.1-0.3-6.3
			c-3.1-0.2-6.1,0.7-8.7,2.3c-5.2,3.2-15.1,8.8-21.3,9.7c-1,0.1-2,0.2-2.8,0.3c-4.1,0.1-8.1-1.9-10.2-5.5c-1.3-2.1-3.5-4.2-6.7-1.2
			c-0.9,0.9-0.7,2.5-0.1,4.2c1.2,3.4,3.6,6.3,6.7,8.2c2.7,1.6,6.2,3.8,8.4,5c2,1.1,1.8,2.4,1,3.4c-0.8,1-1.9,1.7-3.2,1.9
			c-1.4,0.3-4.6,1.1-11.3,3.1c-5.4,1.6-6.2,6.9-5.5,12c0.9,6.7,7.4,11.6,14,10.6c0.8-0.1,1.6-0.3,2.5-0.4c1.3-0.2,2.3-1.4,2.6-2.5
			c0.3-1.2-0.5-2.7-2-3.1l-5.5-0.8c-2.2-0.1-5.4-1.5-4.7-4.3c1.4-6.1,11.8-4.9,11.8-4.9s17.5,4.1,11.9,16.8
			c-3.2,7.3-11.9,11.3-18.7,13.4c-1.1,0.3-0.9,2,0.3,2L247,435c1.3,0,2.3-1.1,2.2-2.4c-0.4-4.1-1.1-12.5-1-14.8
			c0-1.7,0.9-5.5,1.6-8.6c1-4.1,4.4-7.4,8.6-8c1.7-0.3,3.5-0.2,5.5,0.3c2,0.6,3.4,2.1,4.1,4c-0.1,4.4-1.8,4.9-4.3,5.7l-0.5,0.1
			c-1.5,0.4-2.6,1.6-2.8,2.9c-0.3,1.3,0.6,2.6,1.8,3c0.5,0.2,1,0.3,1.6,0.5c0.5,0.2,1.2,0.2,2.1,0.1c5.8-0.5,10.2-5.3,10.7-11.1"/>
		<path class="st3" d="M290.9,413.6c-2.3,0.7-4.4-1.5-3.8-3.8c1.6-6.3,3.4-16.9-0.9-23.6c-6.2-9.8-24-17-30-19.1
			c-2.3-0.8-5.1-1.7-6.2-3.9c-1.6-3.1,0.7-6,13.7-5.3c13.2,0.7,23-1,29.6-1.6c6-0.6,11.7-2.9,16.3-6.8c3.2-2.7,5.7-6.2,4.6-9.8
			c-1.8-5.5-4.6-4-6.3-2.3c-1.7,1.6-3.6,3.1-5.7,4.3c-2.8,1.5-6.1,2.8-7.2,1.4c-2.1-2.9,0.9-6.2,3.2-9.9c2.1-3.3,2.6-7.4,1.4-11.2
			c-1.1-3.5-2.3-7.5-3-9.4c-1.6-4.2,1.3-8.7,5.6-4.7c4.3,4,11.7,12.3,15.1,8.3c3.4-4-4.5-21.3-10.8-21.5c-6.3-0.2-27-10.3-42.2-3.6
			c-15.2,6.7-18.5,13.5-16.9,17.6c1.6,4.1,6,4.8,7.6,1.6c1.8-3.6,9.1-6,10.1,0c1,5.8-3.3,12.5-8.4,13.4c-6.7,1.1-13.2-0.7-16.5-5.2
			c-3.3-4.4,1.7-18.5,1.4-21c-0.3-2.5,3.5-17.2-2.3-13.4c-5.8,3.8-11.6,15.4-10.4,24.8c1.1,9.4,2,20.9,10.8,24.9
			c8.8,4,17.2,7.2,24.9,2.2c7.7-5.1,12.3-13.6,11.1-19.4s-8.2-16.3-2.3-15.4c5.9,0.8,11.9,7.5,12.5,12.8c0.8,7.7,0.3,16-5.7,22.9
			c-4.7,5.4-6.6,8.6-15.8,10c-9.2,1.4-15.6,0.9-20.3-0.2c-5.5-1.3-12-1.5-16.1,2.6c-4.1,4.1-7.2,10.7-14.6,10.9
			c-7.5,0.1-15.7-2.2-16.4-2.7c-5.4-3.8-2.4-10,0.4-9.8c2.7,0.1,12,3,16.3,1.1c2.6-1.2,9.5-4.1,9.2-13.2c-0.4-9.6-5.1-14.8-9.5-16.6
			c-7.3-3.1,4.6-14.3,8.5-22.9c3.9-8.5-1.7-13.6,5.8-15.8s8.7-5,7-8.9c-1.7-3.9,8.6-15.9,9.3-9.7c0.7,6.2,4.9,17.3,16,16.8
			c11-0.5,10-2.6,17.4-2.6c7.5-0.1,6.1,4.1,18.2,2.2c12-1.9,14.1-6.6,16.6-10.4c4.7-7.1,5.9-14.8,2.2-15.8
			c-3.6-1.1-5.6,7.2-13.8,11.2c-8.2,4-13.5-0.9-6.6-5.4c6.8-4.4,10.8-8.5,14-13.5c3.2-5,4.2-8,3.1-13.9c-1.1-5.9-3.2-11.2-6.9-14.1
			c-3.8-2.9-0.9-7.6,4.6-6.2c5.6,1.4,10.8,14.1,16.5,10.8c5.8-3.3-0.9-11-1.4-14.4c-0.6-3.4,4-8.3,11.7-0.1c2.3,2.5,5.7,6.2,9,6.6
			c1.8,0.3,3.8,0,5.8-1.4c1.6-1.1,8.5-12.2,2.8-14.5c-6.8-2.7-5.9-8.2-0.9-8.6c14-1.2,23.4,8.4,31.8,3c3.4-2.2,2.8-4.9,8.9-5.4
			c8.5-0.7,7.6,2.8,13.7,3.8c2.6,0.4,4.7-0.6,6.1-0.5c1.7,0.1,3,1.5,3.1,3.2c0.5,8.1,1.5,29.5-0.4,31.6c-5.4-1.6-2.7-13.5-6.7-17.6
			c-4.1-4.1-13.9-5.7-16.2-1c-1.6,3.2-2.4,7.9,0.6,8.7c5.6,1.5,8.1-4.2,10.6-0.9c2.5,3.3-3.2,9.7-10,10.8
			c-7.5,1.2-11.1-12.2-16.1-16.6c-5-4.5-11.7-5.5-15.4-1.7c-3.7,3.8-3.3,21.9,0.1,21.9c3.4,0,4.1-5.7,7.3-4.9
			c3.2,0.8,4.1,10.3,2.1,15.9c-2.4,6.7-6.1,21.3-6.4,28.1c-0.3,6.8,6.6,11.4,3.5,15c-3.1,3.6-9.5-1.1-11.7-6.4
			c-3.4-8.5-0.7-15.8,2.9-26.2c2.2-6.1,0.6-10.3-1.7-14.8c-1.8-3.4-9.8-11.3-19.5-10.5c-5.2,0.4-12.6,4.7-14.4,11.6
			c-2.1,7.9,1.9,14.4,9.8,14.4c11.8,0,8.7-7,4.7-7.6c-6.9-1-7.5-8.3-0.1-9c7.5-0.7,12.5,6,11.6,13.1c-0.9,7.7-4,13.1-12.3,14.6
			c-8.3,1.5-8.7,1.8-11.2,3.8c-5.6,4.4-4.3,9.5-1.8,10.2c5.1,1.5,7.9-4.4,10.9-3.4c3,0.9,11.7,4.3,8.8,7.7
			c-2.9,3.4-7.5,2.3-13.4,6.4c-4.3,3-9.4,13.5-4.6,16.4c3.6,2.1,13.6-6.8,19.2-10.8c1.4-1,3.5-0.1,3.7,1.6
			c0.3,2.3-6.3,13.7-7.6,18.4c-2.6,9.7-3.5,12.2-6.6,16.5c-1.7,2.4-21.2,15.4-19.4,29c1.7,12.6-6.8,3.9-9.6,6
			c-2.2,1.6,5.3,11.3,2.3,13.2c-6.8,4.4-22-14.1-25.6-7.7c-1.7,3.1,3.8,4.1,10.5,12.6c6.7,8.5,7.9,13,5,23.4
			C297.4,409.3,294.6,412.4,290.9,413.6L290.9,413.6L290.9,413.6z"/>
		<path class="st3" d="M261,240.2c-3.7,3.7,0.3,6.3,3,7.3c4.6,1.7,9.4,8.1,6.5,11.3c-3.2,3.5-8.4,0.6-14.2-2.6
			c-2.3-1.3-8.9,2.1-4.7,7.3c4.2,5.2,14.6,11.5,23.6,5.6c9-5.8,8.5-15.3,5.7-20.5c-2.1-3.9-4.9-8.1-12.6-10.2
			C264.9,237.4,262.3,238.9,261,240.2L261,240.2L261,240.2z"/>
		<path class="st3" d="M425.1,339.8c0.7-4.3-3.3-4.2-5.5-3.5c-3.9,1.1-10.4-0.9-9.9-4.5c0.5-3.9,5.4-4.5,10.9-5.2
			c2.2-0.3,5.1-5.8-0.3-7.2c-5.4-1.5-15.5-0.6-18.8,7.8c-3.3,8.4,1.7,14.6,6.1,16.7c3.3,1.6,7.3,3.1,13.5,0.8
			C423.8,343.6,424.8,341.3,425.1,339.8L425.1,339.8L425.1,339.8z"/>
		<path class="st3" d="M311.2,397.4c-3.4,4-0.3,7.3,1.9,8.6c3.7,2.3,7.2,10,4.5,13.5c-3,3.8-7,0.2-11.6-3.9
			c-1.8-1.7-7.6,1.8-4.5,8.1c3.1,6.3,11.3,14.3,19.3,8.1c8-6.2,8.4-17.2,6.5-23.4c-1.4-4.6-3.5-9.8-9.6-12.6
			C314.6,394.5,312.3,396,311.2,397.4L311.2,397.4L311.2,397.4z"/>
		<path class="st3" d="M280.8,232.9l9.8,13.3c1,1.4,3.1,1.3,4-0.1c2.3-3.7,5.6-10.6,3.1-16.5c-0.9-2.2-2.9-7-4.8-7
			c-4.1,0-9.5,5.1-11.9,7.4C280.2,230.7,280.1,231.9,280.8,232.9L280.8,232.9z"/>
		<path class="st3" d="M348.1,332c-2.1,0.5-3.4,3.1-1.9,4.7c3.7,3.9,17.3,0.4,25.5,0.7c2.1,0.1,12.3,6.3,19.4,8.4
			c2,0.6,3.5-1.8,2.2-3.4c-3.4-3.9-10.2-8.3-11.2-10.7c-0.5-1.3-3.7-5.3-5.1-5"/>
		<path class="st3" d="M282.5,418.6c0.6-1.3-0.2-3.1-1.6-3.1c-3.4,0.1-7.1,8.5-10.5,12.5c-0.9,1-8.1,3.3-12,5.9
			c-1.1,0.7-0.5,2.6,0.8,2.6c3.3,0.1,8.2-1.3,9.8-0.7c0.9,0.4,4.1,0.6,4.6-0.3"/>
		<path class="st3" d="M424,260.1c-0.3-4-4.4-14-10.6-17.7c-5.2-3.1-16.7-7.4-26-1.4c-14.9,9.7-14,21.8-14,21.8s-0.5,12.8,7.7,16
			c6.5,2.6,6.1-10.4,5.7-16c-0.2-2.8,0.5-5.7,2.2-7.9c1.9-2.5,8.1-6.3,13.8-4.8c11.4,3.2,10,17.3,6.3,19.9c-3.7,2.6-7.8-0.4-6.5-3.1
			c2.7-5.6,0.8-11.3-5.9-7.3c-3.4,2-7,9.6-3.5,15.7c2.9,5.1,9.6,7,13.4,7.4c5.1,0.5,10-2.7,12.1-5.3
			C420.9,274.7,424.6,267.5,424,260.1L424,260.1z"/>
		<path class="st0" d="M423.7,305.3c-0.7,1.1-1.8,1.8-3.1,1.9c-4.4,0.4-12.3,1.7-17.2,5.5c-7.1,5.5-6.6,10.4-11,6.4
			c-4.4-4-7-15-13.6-17.1c-6.6-2.1-15-2.5-16.8,2.3c-1.8,4.9,0.4,7.9,4.4,6.4c3.3-1.3,6.7-1.1,6.9,2.6c0.1,2.6-2.1,4.4-4.6,5.8
			c-3.1,1.8-7.7,1.6-11,0c-3.8-1.9-6.9-6.9-6.1-14c0.9-8.6,7.6-14.9,20.3-14.2c12.8,0.8,20.3,17.2,24.1,17.7
			c3.7,0.4,4.9-6.7,15.6-8.6l9-0.9c1.3-0.1,2.5,0.6,3.1,1.8l0.2,0.4C424.6,302.5,424.5,304.1,423.7,305.3L423.7,305.3L423.7,305.3z"
			/>
	</g>
</g>
</svg>
