<?xml version="1.0" encoding="UTF-8"?>
<svg width="256" height="256" viewBox="0 0 256 256" xmlns="http://www.w3.org/2000/svg">
  <defs>
    <linearGradient id="g" x1="0" y1="0" x2="1" y2="1">
      <stop offset="0%" stop-color="#00e08a"/>
      <stop offset="100%" stop-color="#00b36a"/>
    </linearGradient>
  </defs>
  <rect x="0" y="0" width="256" height="256" rx="32" fill="#0f0f0f"/>
  <rect x="20" y="20" width="216" height="216" rx="20" fill="#121212" stroke="#1f1f1f" stroke-width="4"/>
  <rect x="40" y="40" width="56" height="56" rx="8" fill="url(#g)"/>
  <rect x="160" y="40" width="56" height="56" rx="8" fill="url(#g)"/>
  <rect x="40" y="160" width="56" height="56" rx="8" fill="url(#g)"/>
  <rect x="160" y="160" width="56" height="56" rx="8" fill="url(#g)"/>
  <g fill="#eafff5">
    <path d="M95 120 h-35 v-12 h23 v-10 h-23 v-12 h35 v-12 h-47 v58 h47z"/>
    <path d="M109 74 v58 h36 v-12 h-24 v-12 h18 v-12 h-18 v-22z"/>
    <path d="M151 74 v58 h12 v-20 h10 c10 0 18-8 18-19 0-11-8-19-18-19h-22zm12 12h9c4 0 7 3 7 7 0 4-3 8-7 8h-9v-15z"/>
    <path d="M211 132 h14 l-11-18 c6-3 10-9 10-16 0-12-9-24-25-24h-21v58h12v-16h8l13 16zm-23-46h9c7 0 11 4 11 9 0 6-4 10-11 10h-9v-19z"/>
  </g>
</svg>
